<?xml version="1.0" encoding="utf-8"?>
<!-- Generator: Adobe Illustrator 24.2.0, SVG Export Plug-In . SVG Version: 6.00 Build 0)  -->
<svg version="1.1" id="acf6401d-94a8-428e-9730-6b41bf40021d"
	 xmlns="http://www.w3.org/2000/svg" xmlns:xlink="http://www.w3.org/1999/xlink" x="0px" y="0px" viewBox="0 0 574.5 695.7"
	 style="enable-background:new 0 0 574.5 695.7;" xml:space="preserve">
<style type="text/css">
	.st0{fill:#3F3D56;}
	.st1{fill:#E6E8EC;}
	.st2{fill:#FFFFFF;}
	.st3{fill:#F2F2F2;}
	.st4{fill:#E6E6E6;}
	.st5{fill:#F9A826;}
	.st6{fill:#FFB9B9;}
	.st7{fill:#2F2E41;}
	.st8{opacity:0.2;enable-background:new    ;}
	.st9{fill:#00ADEE;}
</style>
<path class="st0" d="M412.7,160.3v78.7c0,1.5-1.2,2.7-2.7,2.7h-2v409.9c0,23.6-19.2,42.8-42.8,42.8H109.1
	c-23.6,0-42.8-19.2-42.8-42.8l0,0V256.1H65c-1.1,0-1.9-0.9-1.9-1.9v-44.8c0-1.1,0.9-1.9,1.9-1.9c0,0,0,0,0,0h1.4v-16.9h-1.4
	c-1.1,0-2-0.9-2-2v-44.2c0-1.1,0.9-2,2-2h1.4v-23h-1.4c-1,0-1.8-0.8-1.8-1.8c0,0,0,0,0,0V93.4c0-1,0.8-1.8,1.8-1.8h1.4V42.8
	C66.4,19.1,85.5,0,109.1,0h256.1C388.9,0,408,19.1,408,42.8v114.8h2C411.5,157.5,412.7,158.7,412.7,160.3z"/>
<path class="st1" d="M207.9,21.9h41.6c1.7,0,3,1.4,3,3l0,0v3.6c0,1.7-1.4,3-3,3l0,0h-41.6c-1.7,0-3-1.4-3-3c0,0,0,0,0,0V25
	C204.9,23.3,206.2,21.9,207.9,21.9z"/>
<circle class="st1" cx="265.3" cy="26.8" r="5.5"/>
<path class="st2" d="M387.6,51.2v604c0,15-12.2,27.1-27.1,27.1H115.2c-15,0-27.1-12.1-27.1-27.1c0,0,0,0,0,0v-604
	c0-15,12.1-27.1,27.1-27.1c0,0,0,0,0,0h36.7v4.7c0,12.3,10,22.3,22.3,22.3H299c12.3,0,22.3-10,22.3-22.3v-4.7h39.1
	C375.4,24.1,387.5,36.2,387.6,51.2C387.6,51.2,387.6,51.2,387.6,51.2z"/>
<path class="st3" d="M387.6,574.1v81.1c0,15-12.2,27.1-27.1,27.1H115.2c-15,0-27.1-12.1-27.1-27.1c0,0,0,0,0,0v-81.1H387.6z"/>
<path class="st4" d="M114.4,99.7c-2,0-3.6,1.6-3.6,3.6V168c0,2,1.6,3.6,3.6,3.6h64.7c2,0,3.6-1.6,3.6-3.6v-64.7c0-2-1.6-3.6-3.6-3.6
	H114.4z"/>
<path class="st4" d="M205.5,99.7c-2,0-3.6,1.6-3.6,3.6V168c0,2,1.6,3.6,3.6,3.6h64.7c2,0,3.6-1.6,3.6-3.6v-64.7c0-2-1.6-3.6-3.6-3.6
	H205.5z"/>
<path class="st4" d="M296.5,99.7c-2,0-3.6,1.6-3.6,3.6V168c0,2,1.6,3.6,3.6,3.6h64.7c2,0,3.6-1.6,3.6-3.6v-64.7c0-2-1.6-3.6-3.6-3.6
	H296.5z"/>
<path class="st4" d="M114.6,199.1c-2,0-3.6,1.6-3.6,3.6v64.7c0,2,1.6,3.6,3.6,3.6h64.7c2,0,3.6-1.6,3.6-3.6v-64.7
	c0-2-1.6-3.6-3.6-3.6H114.6z"/>
<path class="st4" d="M205.6,199.1c-2,0-3.6,1.6-3.6,3.6v64.7c0,2,1.6,3.6,3.6,3.6h64.7c2,0,3.6-1.6,3.6-3.6v-64.7
	c0-2-1.6-3.6-3.6-3.6H205.6z"/>
<path class="st4" d="M296.7,199.1c-2,0-3.6,1.6-3.6,3.6v64.7c0,2,1.6,3.6,3.6,3.6h64.7c2,0,3.6-1.6,3.6-3.6v-64.7
	c0-2-1.6-3.6-3.6-3.6H296.7z"/>
<path class="st4" d="M114.7,298.5c-2,0-3.6,1.6-3.6,3.6v64.7c0,2,1.6,3.6,3.6,3.6h64.7c2,0,3.6-1.6,3.6-3.6v-64.7
	c0-2-1.6-3.6-3.6-3.6H114.7z"/>
<path class="st4" d="M205.8,298.5c-2,0-3.6,1.6-3.6,3.6v64.7c0,2,1.6,3.6,3.6,3.6h64.7c2,0,3.6-1.6,3.6-3.6v-64.7
	c0-2-1.6-3.6-3.6-3.6H205.8z"/>
<path class="st4" d="M296.8,298.5c-2,0-3.6,1.6-3.6,3.6v64.7c0,2,1.6,3.6,3.6,3.6h64.7c2,0,3.6-1.6,3.6-3.6v-64.7
	c0-2-1.6-3.6-3.6-3.6H296.8z"/>
<path class="st5" d="M114.6,592.1c-2,0-3.6,1.6-3.6,3.6v64.7c0,2,1.6,3.6,3.6,3.6h64.7c2,0,3.6-1.6,3.6-3.6v-64.7
	c0-2-1.6-3.6-3.6-3.6H114.6z"/>
<path class="st5" d="M205.6,592.1c-2,0-3.6,1.6-3.6,3.6v64.7c0,2,1.6,3.6,3.6,3.6h64.7c2,0,3.6-1.6,3.6-3.6v-64.7
	c0-2-1.6-3.6-3.6-3.6H205.6z"/>
<path class="st5" d="M296.7,592.1c-2,0-3.6,1.6-3.6,3.6v64.7c0,2,1.6,3.6,3.6,3.6h64.7c2,0,3.6-1.6,3.6-3.6v-64.7
	c0-2-1.6-3.6-3.6-3.6H296.7z"/>
<path class="st4" d="M114.9,398c-2,0-3.6,1.6-3.6,3.6v64.7c0,2,1.6,3.6,3.6,3.6h64.7c2,0,3.6-1.6,3.6-3.6v-64.7c0-2-1.6-3.6-3.6-3.6
	L114.9,398z"/>
<path class="st6" d="M479.2,441l3.3,16.2c1.5,7.4,8.7,12.2,16.1,10.7c0.1,0,0.3-0.1,0.4-0.1l0,0c7.4-1.7,11.9-9.1,10.2-16.5
	c-0.4-1.7-1.1-3.4-2.2-4.8l-9.5-13.3l-23.5-64.4l4.3-55.1c-13.5-5.1-27.2-10.7-34.6-0.7l9.2,60.3L479.2,441z"/>
<path class="st5" d="M492.2,452.1c-1.7,0-3.1,1.4-3.1,3.1v56.7c0,1.7,1.4,3.1,3.1,3.1h56.7c1.7,0,3.1-1.4,3.1-3.1v-56.7
	c0-1.7-1.4-3.1-3.1-3.1H492.2z"/>
<path class="st7" d="M507.4,231.4c0-0.3,0-0.7,0-1c-0.5-21.1-17.2-37.6-38-37.6c-10.1,0-19.8,4.1-26.9,11.3
	c-7.2,7.3-11.1,17.1-11.1,27.3v37.8h75.9V231.4z"/>
<path class="st7" d="M486.5,687.6L486.5,687.6c0.4-3-0.9-6.1-3.5-7.7l-22.6-11.1l-17,2.1l-4,14.4c-0.7,4.2,2.1,8.1,6.3,8.8
	c0.1,0,0.3,0,0.4,0.1l31.8,0.1C482,694.8,485.9,691.8,486.5,687.6z"/>
<polygon class="st7" points="408.2,457.6 410.9,474.3 411.1,475.8 421.2,540.2 424.3,560 425.2,566.1 427.9,585.4 440.2,674.9 
	461.7,670.1 462.7,566.8 462.9,549.1 463,534.1 463.2,520.9 463.8,467.9 "/>
<circle class="st6" cx="477.4" cy="229.2" r="28.8"/>
<path class="st6" d="M445.5,278.4l32.6,16.3c-1.4-16.2,2.1-32.4,10.1-46.5l-28.3-4.3C459.5,255.2,453.8,266.7,445.5,278.4z"/>
<path class="st4" d="M429.7,390.5l57.5,12.5l4.8-37.4c3.1-16,8.7-31.6-1.1-44.2l-1.4-12.9c-1.4-12.7-8.5-24-19.3-30.7l-17.4-10.9
	C416.6,286.4,418.1,334.5,429.7,390.5z"/>
<polygon class="st8" points="424.3,560 425.2,566.1 427.9,585.4 462.7,566.8 462.9,549.1 463,534.1 "/>
<path class="st8" d="M408.2,457.6l2.6,16.7l0.2,1.5c4.2,6.9,9.6,12.9,16,17.8l36.1,27.3l0.6-53L408.2,457.6z"/>
<path class="st7" d="M415.8,558.7l6.7,22.5l86.7-46.2c11.1-6.4,14.9-20.6,8.5-31.7c-0.8-1.3-1.7-2.6-2.7-3.7l-47.4-54l21.1-47.4
	l-60.4-15.8l-6.7,14.4c-14,13.1-20.3,28.3-18.9,45.8c1.5,17.5,10.4,33.6,24.5,44.1l45.2,34.2L415.8,558.7z"/>
<path class="st7" d="M409.2,601.7L409.2,601.7c3,0.2,5.9-1.3,7.4-4l13-23.3l-3.2-16.7l-14.5-3.1c-4.2-0.4-7.9,2.6-8.3,6.8
	c0,0.1,0,0.3,0,0.4l-1.5,31.7C401.8,597.7,405,601.3,409.2,601.7z"/>
<path class="st6" d="M427.8,447.5l-0.5,16.6c-0.2,7.6,5.7,13.9,13.3,14.1c0.1,0,0.3,0,0.4,0l0,0c7.6,0,13.7-6.1,13.7-13.7
	c0-1.8-0.3-3.5-1-5.2l-6.2-15.2l-8.1-68l16.8-52.7c-12-8-24-16.7-33.5-8.6l-4.8,60.9L427.8,447.5z"/>
<path class="st4" d="M416.8,322.4c17.7-8.4,31.2-4.1,41.2,11l6.5-36.2c1.5-8.6-2.9-17.1-10.7-20.9l0,0c-7.8-3.7-17.2-0.4-20.9,7.5
	c-0.1,0.2-0.2,0.5-0.3,0.7L416.8,322.4z"/>
<path class="st7" d="M445.9,209.1l7.2,23l62.4-1.1c-0.6-21.3-18.3-38.1-39.6-37.5C464,193.8,452.9,199.5,445.9,209.1L445.9,209.1z"
	/>
<polygon class="st0" points="574.1,695.7 0,695.7 0,693.5 574.5,693.5 "/>
<g>
	<path class="st9" d="M152.5,238c-0.3,0.1-0.5,0.1-0.8,0.2c-3.3,1-4,2-7,2.3c-0.2,0-0.4,0-0.5,0c-1.5,0-2.1-0.9-4.5-1.1
		c-0.8,0.9-1.5,1.8-2.2,2.7c-1.4,1.7-3.3,3.4-3.2,5.8c0.1,2.5,1.7,3,3.9,3.1c1,0,2.6,0.1,4.3,0.1c1.5,0,3,0,4.2,0c1.3,0,2.8,0,4.2,0
		c1.7,0,3.3,0,4.3-0.1c2.3-0.1,3.8-0.6,3.9-3.1c0.1-2.4-1.8-4.1-3.2-5.8C154.9,240.7,153.7,239.4,152.5,238"/>
	<path class="st9" d="M156,242.2l0.4-0.4c-1.5-1.8-3.1-3.6-4.5-5.4c-0.6-0.7-0.9-1.3-1-1.6c-0.2-0.4-0.2-0.5-0.2-0.6v0l-0.3,0l0.3,0
		c0,0,0,0,0,0l-0.3,0l0.3,0c0,0,0-0.1,0-0.1v-12.4l1.3-0.8c0.2-0.1,0.3-0.3,0.3-0.5V220v-1.1c0-0.1-0.1-0.3-0.2-0.4
		c-0.1-0.1-0.2-0.2-0.4-0.2h-2.1h-2.8H144h-2.1c-0.1,0-0.3,0.1-0.4,0.2c-0.1,0.1-0.2,0.2-0.2,0.4v1.1v0.5c0,0.2,0.1,0.4,0.3,0.5
		l1.3,0.8v12.4c0,0,0,0.1,0,0.1l0.4-0.1l-0.4,0l0,0l0.4-0.1l-0.4,0l0.1,0l-0.1,0l0,0l0.1,0l-0.1,0v0c0,0,0,0.2-0.2,0.6
		c-0.1,0.4-0.4,0.9-1,1.6c-1.5,1.8-3,3.6-4.5,5.4c-0.7,0.8-1.5,1.7-2.1,2.6c-0.3,0.5-0.6,1-0.8,1.6c-0.2,0.6-0.3,1.2-0.3,1.8
		c0,0.1,0,0.1,0,0.2c0,0.7,0.2,1.3,0.4,1.7c0.2,0.4,0.4,0.7,0.7,0.9c0.4,0.4,1,0.6,1.5,0.7c0.6,0.1,1.2,0.2,1.8,0.2
		c1,0,2.6,0.1,4.3,0.1c1.5,0,3,0,4.2,0l0-0.6l0,0.6c1.3,0,2.8,0,4.2,0c1.7,0,3.3,0,4.3-0.1c0.6,0,1.1-0.1,1.6-0.2
		c0.4-0.1,0.7-0.2,1.1-0.4c0.5-0.3,0.9-0.6,1.2-1.2c0.3-0.5,0.5-1.2,0.5-1.9c0-0.1,0-0.1,0-0.2c0-0.6-0.1-1.3-0.3-1.8
		c-0.3-0.8-0.8-1.6-1.3-2.3c-0.5-0.7-1.1-1.3-1.6-1.9L156,242.2l-0.4,0.4c0.7,0.9,1.5,1.7,2.1,2.5c0.3,0.4,0.5,0.9,0.7,1.3
		c0.2,0.5,0.3,0.9,0.3,1.4c0,0.1,0,0.1,0,0.2c0,0.6-0.1,1-0.3,1.3c-0.1,0.2-0.3,0.4-0.4,0.6c-0.3,0.2-0.6,0.4-1.1,0.5
		c-0.5,0.1-1,0.2-1.6,0.2c-1,0-2.6,0.1-4.2,0.1c-1.4,0-3,0-4.2,0h0c-1.3,0-2.8,0-4.2,0c-1.7,0-3.3,0-4.2-0.1c-0.5,0-1-0.1-1.5-0.2
		c-0.3-0.1-0.6-0.2-0.8-0.3c-0.3-0.2-0.6-0.4-0.8-0.7c-0.2-0.3-0.3-0.8-0.3-1.4c0-0.1,0-0.1,0-0.2c0-0.5,0.1-1,0.3-1.4
		c0.3-0.7,0.7-1.3,1.2-2c0.5-0.6,1.1-1.3,1.6-1.9c1.5-1.8,3.1-3.6,4.5-5.4c0.6-0.8,1-1.4,1.2-1.9c0.2-0.5,0.2-0.8,0.2-1
		c0-0.1,0-0.1,0-0.1l-0.5,0.1h0.6v-12.8c0-0.2-0.1-0.4-0.3-0.5l-1.3-0.8V220v-0.5h1.6h2.8h2.8h1.6v0.5v0.2l-1.3,0.8
		c-0.2,0.1-0.3,0.3-0.3,0.5v12.8h0.6l-0.5-0.1c0,0,0,0.1,0,0.1c0,0.2,0,0.5,0.2,1c0.2,0.5,0.6,1.1,1.2,1.9c1.5,1.9,3.1,3.6,4.5,5.4
		L156,242.2L156,242.2z"/>
	<path class="st9" d="M150.2,223.8h-3.4c-0.3,0-0.5,0.2-0.5,0.5c0,0.3,0.2,0.5,0.5,0.5h3.4c0.3,0,0.5-0.2,0.5-0.5
		C150.6,224,150.4,223.8,150.2,223.8"/>
	<path class="st9" d="M150.2,226.7h-3.4c-0.3,0-0.5,0.2-0.5,0.5c0,0.3,0.2,0.5,0.5,0.5h3.4c0.3,0,0.5-0.2,0.5-0.5
		C150.6,226.9,150.4,226.7,150.2,226.7"/>
	<path class="st9" d="M150.2,229.5h-3.4c-0.3,0-0.5,0.2-0.5,0.5c0,0.3,0.2,0.5,0.5,0.5h3.4c0.3,0,0.5-0.2,0.5-0.5
		C150.6,229.7,150.4,229.5,150.2,229.5"/>
	<polygon class="st2" points="142.8,249 139.5,246.2 142.8,243.4 143.6,244.2 141.1,246.2 143.6,248.2 142.8,249 	"/>
	<polygon class="st2" points="145.5,250 144.3,250 147.8,241.9 149,241.9 145.5,250 	"/>
	<polygon class="st2" points="150.7,243.4 154.1,246.2 150.7,249 149.9,248.2 152.4,246.2 149.9,244.2 150.7,243.4 	"/>
</g>
</svg>
