<?xml version="1.0" encoding="utf-8"?>
<!-- Generator: Adobe Illustrator 24.2.0, SVG Export Plug-In . SVG Version: 6.00 Build 0)  -->
<svg version="1.1" xmlns="http://www.w3.org/2000/svg" xmlns:xlink="http://www.w3.org/1999/xlink" x="0px" y="0px"
	 viewBox="0 0 795.4 574" style="enable-background:new 0 0 795.4 574;" xml:space="preserve">
<style type="text/css">
	.st0{fill:#00ADEE;}
	.st1{fill:#FFFFFF;}
	.st2{fill:#E0E0E0;}
	.st3{fill:#F55F44;}
	.st4{opacity:5.000000e-02;enable-background:new    ;}
	.st5{fill:url(#SVGID_1_);}
	.st6{fill:#F5F5F5;}
	.st7{fill:#DBDBDB;}
	.st8{opacity:0.5;}
	.st9{fill:#47E6B1;}
	.st10{opacity:0.5;fill:#4D8AF0;enable-background:new    ;}
	.st11{opacity:0.5;fill:#F55F44;enable-background:new    ;}
	.st12{opacity:0.5;fill:#47E6B1;enable-background:new    ;}
	.st13{fill:#F9A826;}
	.st14{opacity:0.15;enable-background:new    ;}
</style>
<g id="Layer_2">
	<g>
		<path class="st0" d="M387.1,146c-0.8,0.2-1.5,0.3-2.3,0.6c-9.9,3.1-12,5.9-21,7c-0.6,0.1-1.1,0.1-1.6,0.1c-4.4,0-6.2-2.6-13.4-3.2
			c-2.3,2.7-4.5,5.3-6.7,8c-4.2,5.2-9.8,10.3-9.5,17.5c0.3,7.5,5,9,11.8,9.3c3,0.1,7.7,0.2,12.8,0.2c4.4,0,8.9,0,12.7-0.1
			c3.8,0,8.3,0.1,12.7,0.1c5.1,0,9.8,0,12.8-0.2c6.8-0.3,11.5-1.8,11.8-9.3c0.3-7.2-5.3-12.3-9.5-17.5
			C394.2,154.3,390.6,150.2,387.1,146"/>
		<path class="st0" d="M397.7,158.7l1.3-1.1c-4.5-5.5-9.2-10.8-13.6-16.3c-1.8-2.2-2.6-3.8-3.1-4.9c-0.5-1.1-0.5-1.6-0.5-1.7v0
			l-0.9,0l0.9,0.1c0-0.1,0-0.1,0-0.1l-0.9,0l0.9,0.1c0-0.1,0-0.2,0-0.2V97.3l3.8-2.3c0.5-0.3,0.8-0.8,0.8-1.4v-1.4v-3.3
			c0-0.4-0.2-0.9-0.5-1.2c-0.3-0.3-0.7-0.5-1.2-0.5h-6.4h-8.4h-8.4h-6.4c-0.4,0-0.9,0.2-1.2,0.5c-0.3,0.3-0.5,0.7-0.5,1.2v3.3v1.4
			c0,0.6,0.3,1.1,0.8,1.4l3.8,2.3v37.3c0,0.1,0,0.2,0,0.2l1.1-0.2l-1.1,0.1l0,0.1l1.1-0.2l-1.1,0.1l0.4,0l-0.4,0l0,0l0.4,0l-0.4,0v0
			c0,0.1,0,0.6-0.5,1.7c-0.4,1.1-1.3,2.7-3.1,4.9c-4.4,5.5-9.1,10.8-13.6,16.3c-2,2.5-4.4,5-6.4,7.9c-1,1.4-1.9,3-2.5,4.7
			c-0.6,1.7-1,3.5-1,5.4c0,0.2,0,0.4,0,0.6c0.1,2,0.5,3.8,1.2,5.2c0.5,1.1,1.3,2,2.1,2.8c1.3,1.1,2.9,1.8,4.5,2.2
			c1.7,0.4,3.5,0.6,5.5,0.7c3,0.1,7.8,0.2,12.9,0.2c4.4,0,8.9,0,12.7-0.1l0-1.7l0,1.7c3.8,0,8.3,0.1,12.7,0.1c5.1,0,9.9,0,12.9-0.2
			c1.7-0.1,3.4-0.2,4.9-0.6c1.2-0.2,2.2-0.6,3.2-1.1c1.5-0.8,2.8-1.9,3.7-3.5c0.9-1.6,1.4-3.5,1.5-5.8c0-0.2,0-0.4,0-0.6
			c0-1.9-0.4-3.8-1-5.4c-0.9-2.5-2.4-4.7-4-6.8c-1.6-2-3.3-3.9-4.9-5.8L397.7,158.7l-1.3,1.1c2.1,2.6,4.5,5,6.2,7.6
			c0.9,1.3,1.6,2.6,2.1,4c0.5,1.4,0.8,2.8,0.8,4.3c0,0.2,0,0.3,0,0.5c-0.1,1.7-0.4,3-0.8,3.9c-0.3,0.7-0.8,1.2-1.3,1.7
			c-0.8,0.7-1.8,1.2-3.2,1.5c-1.4,0.3-3,0.5-4.8,0.6c-2.9,0.1-7.7,0.2-12.7,0.2c-4.3,0-8.9,0-12.7-0.1h0c-3.8,0-8.3,0.1-12.7,0.1
			c-5,0-9.8,0-12.7-0.2c-1.6-0.1-3.1-0.2-4.4-0.5c-0.9-0.2-1.8-0.5-2.4-0.8c-1-0.5-1.8-1.2-2.3-2.2c-0.6-1-0.9-2.3-1-4.2
			c0-0.2,0-0.3,0-0.5c0-1.5,0.3-2.9,0.8-4.3c0.8-2,2-4,3.5-5.9c1.5-1.9,3.2-3.8,4.8-5.7c4.5-5.4,9.2-10.7,13.6-16.3
			c1.9-2.4,3-4.3,3.6-5.7c0.6-1.4,0.7-2.4,0.7-2.9c0-0.2,0-0.3,0-0.4l-1.6,0.2h1.7V96.4c0-0.6-0.3-1.1-0.8-1.4l-3.8-2.3v-0.5v-1.6
			h4.8h8.4h8.4h4.8v1.6v0.5l-3.8,2.3c-0.5,0.3-0.8,0.8-0.8,1.4v38.3h1.7l-1.6-0.2c0,0.1,0,0.2,0,0.4c0,0.5,0.1,1.5,0.7,2.9
			c0.6,1.4,1.7,3.3,3.6,5.7c4.5,5.6,9.2,10.9,13.6,16.3L397.7,158.7L397.7,158.7z"/>
		<path class="st0" d="M380.1,103.6h-10.2c-0.8,0-1.4,0.6-1.4,1.4s0.6,1.4,1.4,1.4h10.2c0.8,0,1.4-0.6,1.4-1.4
			S380.9,103.6,380.1,103.6"/>
		<path class="st0" d="M380.1,112.1h-10.2c-0.8,0-1.4,0.6-1.4,1.4s0.6,1.4,1.4,1.4h10.2c0.8,0,1.4-0.6,1.4-1.4
			S380.9,112.1,380.1,112.1"/>
		<path class="st0" d="M380.1,120.7h-10.2c-0.8,0-1.4,0.6-1.4,1.4c0,0.8,0.6,1.4,1.4,1.4h10.2c0.8,0,1.4-0.6,1.4-1.4
			C381.5,121.3,380.9,120.7,380.1,120.7"/>
		<polygon class="st1" points="358.1,179.2 348.1,170.7 358.1,162.2 360.5,164.6 353.1,170.6 360.5,176.8 358.1,179.2 		"/>
		<polygon class="st1" points="366.1,182 362.6,182 373,157.7 376.6,157.7 366.1,182 		"/>
		<polygon class="st1" points="381.7,162.2 391.8,170.7 381.7,179.2 379.4,176.8 386.8,170.7 379.4,164.6 381.7,162.2 		"/>
	</g>
	<g>
		<path class="st0" d="M684.3,354.4c-2.5,0.6-5.1,1.1-7.5,1.9c-32.9,10.2-40.1,19.7-70,23.3c-1.9,0.2-3.6,0.3-5.2,0.3
			c-14.8,0-20.8-8.8-44.6-10.6c-7.5,8.9-15.1,17.7-22.4,26.7c-14.1,17.2-32.7,34.2-31.7,58.2c1,24.9,16.6,30,39.2,30.9
			c9.9,0.4,25.8,0.5,42.7,0.5c14.5,0,29.7-0.1,42.3-0.2c12.6,0.1,27.8,0.2,42.3,0.2c16.9,0,32.8-0.1,42.7-0.5
			c22.6-0.9,38.2-6.1,39.2-30.9c1-24-17.6-41-31.7-58.2C707.8,382,695.9,368.3,684.3,354.4"/>
		<path class="st0" d="M719.4,396.5l4.3-3.5c-15.1-18.3-30.7-36-45.4-54.3c-5.8-7.3-8.8-12.7-10.3-16.3c-1.5-3.6-1.5-5.4-1.5-5.6v0
			l-3-0.1l3,0.4c0-0.2,0-0.3,0-0.3l-3-0.1l3,0.4c0-0.2,0.1-0.6,0.1-0.8V192l12.8-7.6c1.7-1,2.7-2.8,2.7-4.7V175v-11
			c0-1.5-0.6-2.9-1.6-3.9c-1-1-2.4-1.6-3.9-1.6H655h-28h-28h-21.4c-1.5,0-2.9,0.6-3.9,1.6c-1,1-1.6,2.4-1.6,3.9v11v4.7
			c0,2,1,3.7,2.7,4.7l12.8,7.6v124.4c0,0.2,0,0.6,0.1,0.8l3.8-0.6l-3.8,0.3l0,0.3l3.8-0.6l-3.8,0.3l1.3-0.1l-1.3,0l0,0l1.3-0.1
			l-1.3,0v0c0,0.2,0,2-1.5,5.6c-1.5,3.6-4.5,9-10.3,16.3C561,357,545.4,374.7,530.3,393c-6.7,8.2-14.8,16.6-21.3,26.3
			c-3.3,4.8-6.2,10-8.3,15.6c-2.1,5.6-3.4,11.6-3.4,18.1c0,0.7,0,1.3,0,2c0.3,6.8,1.5,12.5,3.9,17.4c1.8,3.6,4.2,6.7,7,9.2
			c4.3,3.7,9.5,6,15.1,7.4c5.6,1.4,11.8,2,18.4,2.3c10,0.4,26,0.5,42.9,0.5c14.5,0,29.7-0.1,42.3-0.2l0-5.5l0,5.5
			c12.6,0.1,27.8,0.2,42.3,0.2c16.9,0,32.8-0.1,42.9-0.5c5.8-0.2,11.3-0.7,16.5-1.8c3.8-0.8,7.5-2,10.8-3.7c5-2.5,9.4-6.3,12.3-11.5
			c3-5.2,4.6-11.6,4.9-19.2c0-0.7,0-1.3,0-2c0-6.5-1.3-12.5-3.4-18.1c-3.2-8.4-8.1-15.8-13.5-22.6c-5.4-6.8-11.1-13.1-16.2-19.2
			L719.4,396.5l-4.3,3.5c7.1,8.6,14.9,16.8,20.7,25.5c2.9,4.3,5.4,8.7,7.1,13.2c1.7,4.5,2.7,9.2,2.7,14.2c0,0.5,0,1,0,1.6
			c-0.2,5.7-1.3,9.9-2.8,13c-1.2,2.4-2.6,4.2-4.3,5.7c-2.6,2.3-6.1,3.9-10.6,5c-4.5,1.1-10,1.7-16.1,2c-9.7,0.4-25.6,0.5-42.5,0.5
			c-14.5,0-29.6-0.1-42.2-0.2h-0.1c-12.6,0.1-27.8,0.2-42.2,0.2c-16.8,0-32.7-0.1-42.5-0.5c-5.5-0.2-10.4-0.7-14.6-1.6
			c-3.1-0.7-5.9-1.6-8.2-2.7c-3.4-1.8-5.9-3.9-7.8-7.2c-1.9-3.2-3.2-7.8-3.4-14.1c0-0.5,0-1,0-1.6c0-5,1-9.7,2.7-14.2
			c2.5-6.8,6.8-13.3,11.8-19.6c5-6.4,10.7-12.6,16-19c14.9-18.1,30.6-35.8,45.5-54.4c6.4-7.9,9.9-14.2,11.9-18.9
			c2-4.7,2.4-8,2.4-9.8c0-0.6,0-1-0.1-1.3l-5.5,0.8h5.5V188.9c0-2-1-3.7-2.7-4.7l-12.8-7.6V175v-5.5h15.9h28h28h15.9v5.5v1.5
			l-12.8,7.6c-1.7,1-2.7,2.8-2.7,4.7v127.5h5.5l-5.5-0.8c0,0.3-0.1,0.7-0.1,1.3c0,1.8,0.4,5.1,2.4,9.8c2,4.7,5.5,11,11.9,18.9
			c14.9,18.6,30.5,36.3,45.5,54.4L719.4,396.5L719.4,396.5z"/>
		<path class="st0" d="M660.9,212.9h-34c-2.5,0-4.6,2.1-4.6,4.6s2.1,4.6,4.6,4.6h34c2.5,0,4.6-2.1,4.6-4.6S663.5,212.9,660.9,212.9"
			/>
		<path class="st0" d="M660.9,241.4h-34c-2.5,0-4.6,2.1-4.6,4.6c0,2.5,2.1,4.6,4.6,4.6h34c2.5,0,4.6-2.1,4.6-4.6
			C665.5,243.4,663.5,241.4,660.9,241.4"/>
		<path class="st0" d="M660.9,269.9h-34c-2.5,0-4.6,2.1-4.6,4.6s2.1,4.6,4.6,4.6h34c2.5,0,4.6-2.1,4.6-4.6S663.5,269.9,660.9,269.9"
			/>
		<polygon class="st1" points="587.6,464.8 554.1,436.6 587.6,408.3 595.4,416.2 570.7,436.5 595.4,457 587.6,464.8 		"/>
		<polygon class="st1" points="614.3,474.4 602.5,474.4 637.2,393.4 649.1,393.4 614.3,474.4 		"/>
		<polygon class="st1" points="666.3,408.3 699.8,436.6 666.3,464.8 658.6,457 683.2,436.7 658.6,416.2 666.3,408.3 		"/>
	</g>
</g>
<g id="eb113788-f1f1-4c1f-be62-f1d0ea2e1eb6">
	
		<ellipse transform="matrix(0.4445 -0.8958 0.8958 0.4445 -240.6422 186.1413)" class="st2" cx="29.8" cy="287.1" rx="35.1" ry="5.3"/>
	
		<ellipse transform="matrix(0.4445 -0.8958 0.8958 0.4445 -192.1225 699.9531)" class="st2" cx="468.3" cy="504.9" rx="35.1" ry="3.6"/>
	
		<rect x="171.1" y="428.5" transform="matrix(0.6367 -0.7711 0.7711 0.6367 -263.6485 318.484)" class="st3" width="70.2" height="21.1"/>
	
		<rect x="183.8" y="433.8" transform="matrix(0.2289 -0.9735 0.9735 0.2289 -265.0755 556.7316)" class="st4" width="70.2" height="23.7"/>
	
		<rect x="185.1" y="435.5" transform="matrix(0.2289 -0.9735 0.9735 0.2289 -264.3799 558.2128)" class="st3" width="70.2" height="21.1"/>
	
		<linearGradient id="SVGID_1_" gradientUnits="userSpaceOnUse" x1="-230.9827" y1="-1940.5959" x2="-230.9827" y2="-1866.897" gradientTransform="matrix(0.8958 0.4445 0.4445 -0.8958 1302.0978 -1206.8163)">
		<stop  offset="0" style="stop-color:#808080;stop-opacity:0.25"/>
		<stop  offset="0.5351" style="stop-color:#808080;stop-opacity:0.12"/>
		<stop  offset="1" style="stop-color:#808080;stop-opacity:0.1"/>
	</linearGradient>
	<polygon class="st5" points="13.4,320.1 46.1,254.1 484.7,471.7 451.9,537.7 	"/>
	<path class="st6" d="M452.7,536.1C444.1,532,7.9,315.4,14.2,318.5c24.2-37,31.2-62.9,31.2-62.9l438.6,217.6
		C483.9,473.2,468.5,500.3,452.7,536.1z"/>
	
		<rect x="204.5" y="371" transform="matrix(0.4445 -0.8958 0.8958 0.4445 -217.3352 431.9631)" class="st4" width="70.2" height="40.4"/>
	
		<rect x="204.5" y="372.8" transform="matrix(0.4445 -0.8958 0.8958 0.4445 -217.3352 431.9631)" class="st3" width="70.2" height="36.8"/>
	
		<rect x="203.7" y="378.5" transform="matrix(0.4445 -0.8958 0.8958 0.4445 -217.4225 431.0424)" class="st4" width="70.2" height="24.6"/>
	
		<rect x="203.7" y="380.3" transform="matrix(0.4445 -0.8958 0.8958 0.4445 -217.4225 431.0424)" class="st3" width="70.2" height="21.1"/>
	<circle class="st7" cx="261.3" cy="563.9" r="2.9"/>
	<g class="st8">
		<rect x="29.4" y="482" class="st9" width="3" height="17"/>
		<rect x="22.4" y="489" class="st9" width="17" height="3"/>
	</g>
	<g class="st8">
		<rect x="785.4" y="270" class="st9" width="3" height="17"/>
		<rect x="778.4" y="277" class="st9" width="17" height="3"/>
	</g>
	<g class="st8">
		<rect x="47.4" y="59" class="st9" width="3" height="17"/>
		<rect x="40.4" y="66" class="st9" width="17" height="3"/>
	</g>
	<g class="st8">
		<rect x="695.4" y="33" class="st9" width="3" height="17"/>
		<rect x="688.4" y="40" class="st9" width="17" height="3"/>
	</g>
	<path class="st10" d="M12.3,253.5c-1.7-0.7-2.6-2.7-2-4.4c0-0.1,0.1-0.3,0.1-0.4l0,0c0.1-1-0.7-1.9-1.7-2c-0.6,0-1.2,0.2-1.6,0.7
		l0,0c-0.1,0.1-0.2,0.2-0.2,0.4c-0.7,1.7-2.7,2.6-4.4,2c-0.1,0-0.3-0.1-0.4-0.1l0,0c-1-0.1-1.9,0.7-2,1.7c0,0.6,0.2,1.2,0.7,1.6l0,0
		c0.1,0.1,0.2,0.2,0.4,0.2c1.7,0.7,2.6,2.7,2,4.4c0,0.1-0.1,0.3-0.1,0.4l0,0c-0.1,1,0.7,1.9,1.7,2c0.6,0,1.2-0.2,1.6-0.7l0,0
		c0.1-0.1,0.2-0.2,0.2-0.4c0.7-1.7,2.7-2.6,4.4-2c0.1,0,0.3,0.1,0.4,0.1l0,0c1,0.1,1.9-0.7,2-1.7c0-0.6-0.2-1.2-0.7-1.6l0,0
		C12.5,253.6,12.4,253.5,12.3,253.5z"/>
	<path class="st10" d="M184.3,56.5c-1.7-0.7-2.6-2.7-2-4.4c0-0.1,0.1-0.3,0.1-0.4l0,0c0.1-1-0.7-1.9-1.7-2c-0.6,0-1.2,0.2-1.6,0.7
		l0,0c-0.1,0.1-0.2,0.2-0.2,0.4c-0.7,1.7-2.7,2.6-4.4,2c-0.1,0-0.3-0.1-0.4-0.1l0,0c-1-0.1-1.9,0.7-2,1.7c0,0.6,0.2,1.2,0.7,1.6l0,0
		c0.1,0.1,0.2,0.2,0.4,0.2c1.7,0.7,2.6,2.7,2,4.4c0,0.1-0.1,0.3-0.1,0.4l0,0c-0.1,1,0.7,1.9,1.7,2c0.6,0,1.2-0.2,1.6-0.7l0,0
		c0.1-0.1,0.2-0.2,0.2-0.4c0.7-1.7,2.7-2.6,4.4-2c0.1,0,0.3,0.1,0.4,0.1l0,0c1,0.1,1.9-0.7,2-1.7c0-0.6-0.2-1.2-0.7-1.6l0,0
		C184.5,56.6,184.4,56.5,184.3,56.5z"/>
	<path class="st10" d="M394.3,567.5c-1.7-0.7-2.6-2.7-2-4.4c0-0.1,0.1-0.3,0.1-0.4l0,0c0.1-1-0.7-1.9-1.7-2c-0.6,0-1.2,0.2-1.6,0.7
		l0,0c-0.1,0.1-0.2,0.2-0.2,0.4c-0.7,1.7-2.7,2.6-4.4,2c-0.1,0-0.3-0.1-0.4-0.1l0,0c-1-0.1-1.9,0.7-2,1.7c0,0.6,0.2,1.2,0.7,1.6l0,0
		c0.1,0.1,0.2,0.2,0.4,0.2c1.7,0.7,2.6,2.7,2,4.4c0,0.1-0.1,0.3-0.1,0.4l0,0c-0.1,1,0.7,1.9,1.7,2c0.6,0,1.2-0.2,1.6-0.7l0,0
		c0.1-0.1,0.2-0.2,0.2-0.4c0.7-1.7,2.7-2.6,4.4-2c0.1,0,0.3,0.1,0.4,0.1l0,0c1,0.1,1.9-0.7,2-1.7c0-0.6-0.2-1.2-0.7-1.6l0,0
		C394.5,567.6,394.4,567.5,394.3,567.5z"/>
	<circle class="st11" cx="759.4" cy="444" r="6"/>
	<circle class="st10" cx="627.4" cy="482" r="6"/>
	<circle class="st12" cx="103.4" cy="541" r="6"/>
	<circle class="st11" cx="411.4" cy="6" r="6"/>
	<path class="st13" d="M204.9,357.5l-24,36c0,0,8,37,185,36s191-36,191-36l-33-48l-101-69L204.9,357.5z"/>
	<path class="st14" d="M204.9,357.5l-24,36c0,0,8,37,185,36s191-36,191-36l-33-48l-101-69L204.9,357.5z"/>
	<polygon class="st13" points="715.4,224 400.4,363 16.4,224 368.4,64 541.2,143.7 547.4,146.5 	"/>
	<polygon class="st14" points="715.4,224 400.4,363 16.4,224 368.4,64 541.2,143.7 547.4,146.5 	"/>
	<polygon class="st6" points="553.9,257.3 547.9,257.7 541.2,143.7 547.4,146.5 	"/>
	<path class="st13" d="M208.9,223.5l-28,170c0,0,201-65,376,0l-26-180C530.9,213.5,295.9,184.5,208.9,223.5z"/>
	<ellipse class="st6" cx="553.4" cy="272" rx="29" ry="20"/>
</g>
</svg>
