<?xml version="1.0" encoding="utf-8"?>
<!-- Generator: Adobe Illustrator 24.2.0, SVG Export Plug-In . SVG Version: 6.00 Build 0)  -->
<svg version="1.1" xmlns="http://www.w3.org/2000/svg" xmlns:xlink="http://www.w3.org/1999/xlink" x="0px" y="0px"
	 viewBox="0 0 932.4 646.2" style="enable-background:new 0 0 932.4 646.2;" xml:space="preserve">
<style type="text/css">
	.st0{fill:#F9A826;stroke:#F9A826;stroke-miterlimit:10;}
	.st1{fill:#F55F44;}
	.st2{fill:#4D8AF0;}
	.st3{fill:#3AD29F;}
	.st4{fill:#FDD835;}
	.st5{opacity:0.1;}
	.st6{fill:#FFFFFF;}
	.st7{opacity:0.5;}
	.st8{fill:url(#SVGID_1_);}
	.st9{fill:#706A6A;}
	.st10{fill:url(#SVGID_2_);}
	.st11{fill:url(#SVGID_3_);}
	.st12{fill:url(#SVGID_4_);}
	.st13{fill:#00ADEE;}
</style>
<g id="bb6491d8-974c-4727-a107-afc356bed175">
	<rect x="172.2" y="163.1" class="st0" width="11" height="147"/>
	<rect x="407.4" y="265.8" class="st1" width="109.3" height="66.2"/>
	<rect x="516.7" y="265.8" class="st2" width="109.3" height="66.2"/>
	<rect x="626" y="265.8" class="st3" width="109.3" height="66.2"/>
	<rect x="406.6" y="332" class="st2" width="109.3" height="66.2"/>
	<rect x="298.2" y="332" class="st1" width="109.3" height="66.2"/>
	<rect x="516.7" y="332" class="st3" width="109.3" height="66.2"/>
	<rect x="626" y="332" class="st4" width="109.3" height="66.2"/>
	<g class="st5">
		<rect x="427" y="265.4" width="14.4" height="66.2"/>
		<rect x="454.9" y="265.4" width="14.4" height="66.2"/>
		<rect x="482.8" y="265.4" width="14.4" height="66.2"/>
	</g>
	<g class="st5">
		<rect x="536.2" y="265.4" width="14.4" height="66.2"/>
		<rect x="564.1" y="265.4" width="14.4" height="66.2"/>
		<rect x="592.1" y="265.4" width="14.4" height="66.2"/>
	</g>
	<g class="st5">
		<rect x="645.5" y="265.4" width="14.4" height="66.2"/>
		<rect x="673.4" y="265.4" width="14.4" height="66.2"/>
		<rect x="701.3" y="265.4" width="14.4" height="66.2"/>
	</g>
	<g class="st5">
		<rect x="427" y="331.6" width="14.4" height="66.2"/>
		<rect x="454.9" y="331.6" width="14.4" height="66.2"/>
		<rect x="482.8" y="331.6" width="14.4" height="66.2"/>
	</g>
	<g class="st5">
		<rect x="317.7" y="331.6" width="14.4" height="66.2"/>
		<rect x="345.6" y="331.6" width="14.4" height="66.2"/>
		<rect x="373.5" y="331.6" width="14.4" height="66.2"/>
	</g>
	<g class="st5">
		<rect x="536.2" y="331.6" width="14.4" height="66.2"/>
		<rect x="564.1" y="331.6" width="14.4" height="66.2"/>
		<rect x="592.1" y="331.6" width="14.4" height="66.2"/>
	</g>
	<g class="st5">
		<rect x="645.5" y="331.6" width="14.4" height="66.2"/>
		<rect x="673.4" y="331.6" width="14.4" height="66.2"/>
		<rect x="701.3" y="331.6" width="14.4" height="66.2"/>
	</g>
	<rect x="21.7" y="475.6" class="st0" width="846" height="26"/>
	<path class="st0" d="M790.7,372.6h-498c-6.6,0-12-5.4-12-12v-73.3l-194-21.7v223h716v-128C802.7,367.2,797.3,372.6,790.7,372.6z"/>
	<rect x="86.7" y="289.6" class="st6" width="73" height="42"/>
	<circle class="st0" cx="177.7" cy="162.6" r="21"/>
	<path class="st2" d="M95.6,496.7c7.4-20.1,30.8-30.5,52.2-29.7s41.3,10.5,60.5,20s39,19.3,60.4,20.3c47.5,2.3,87.5-38.1,134.9-42.7
		c56.3-5.5,106.3,40.4,162.8,42.3c9.9,0.3,20.1-0.8,29.2-4.7c8-3.4,14.9-8.8,22.4-13c38-21.6,85.5-13.4,127.5-1.5
		s85.6,27.3,128.3,18.1"/>
	<path class="st2" d="M0,535.5c7.4-20.1,30.8-30.5,52.2-29.7s41.3,10.5,60.5,20s39,19.3,60.4,20.3c47.5,2.3,87.5-38.1,134.9-42.7
		c56.3-5.5,106.3,40.4,162.8,42.3c9.9,0.3,20.1-0.8,29.2-4.7c8-3.4,14.9-8.8,22.4-13c38-21.6,85.5-13.4,127.5-1.5
		s85.6,27.3,128.3,18.1"/>
	<path class="st2" d="M101.9,585.2c7.4-20.1,30.8-30.5,52.2-29.7s41.3,10.5,60.5,20s39,19.3,60.4,20.3
		c47.5,2.3,87.5-38.1,134.9-42.7c56.3-5.5,106.3,40.4,162.8,42.3c9.9,0.3,20.1-0.8,29.2-4.7c8-3.4,14.9-8.8,22.4-13
		c38-21.6,85.5-13.4,127.5-1.5s85.6,27.3,128.3,18.1"/>
	<path class="st2" d="M154.1,634.2c7.4-20.1,30.8-30.5,52.2-29.7s41.3,10.5,60.5,20s39,19.3,60.4,20.3
		c47.5,2.3,87.5-38.1,134.9-42.7c56.3-5.5,106.3,40.4,162.8,42.3c9.9,0.3,20.1-0.8,29.2-4.7c8-3.4,14.9-8.8,22.4-13
		c38-21.6,85.5-13.4,127.5-1.5s85.6,27.3,128.3,18.1"/>
	<g class="st7">
		
			<linearGradient id="SVGID_1_" gradientUnits="userSpaceOnUse" x1="401.1987" y1="409.1881" x2="401.1987" y2="456.5084" gradientTransform="matrix(1 0 0 -1 -136.8123 523.1099)">
			<stop  offset="0" style="stop-color:#808080;stop-opacity:0.25"/>
			<stop  offset="0.5351" style="stop-color:#808080;stop-opacity:0.12"/>
			<stop  offset="1" style="stop-color:#808080;stop-opacity:0.1"/>
		</linearGradient>
		<path class="st8" d="M262.9,113.9l-6.9-1.2c0.2-1.7,0.5-3.4,0.8-5.1c1.2-14.8-9.1-30.3-23.5-34.3l1.8-6.8
			c13.1,3.6,23.3,14.6,27.1,27.4c6.9-11.7,18.3-20.1,31.6-22.9l1.4,6.9c-15.1,3-27.9,15.9-31.5,30.9
			C263.7,110.5,263.4,112.2,262.9,113.9z"/>
	</g>
	<path class="st9" d="M263.2,110.5l-5.9-1c0.2-1.5,0.4-2.9,0.7-4.3c1-12.6-7.8-25.9-20.1-29.3l1.6-5.8c11.2,3.1,19.9,12.4,23.2,23.4
		c5.9-10,15.7-17.2,27.1-19.6l1.2,5.9c-12.9,2.6-23.9,13.6-27,26.4C263.8,107.6,263.5,109,263.2,110.5z"/>
	<g class="st7">
		
			<linearGradient id="SVGID_2_" gradientUnits="userSpaceOnUse" x1="548.1987" y1="472.5866" x2="548.1987" y2="503.1098" gradientTransform="matrix(1 0 0 -1 -136.8123 523.1099)">
			<stop  offset="0" style="stop-color:#808080;stop-opacity:0.25"/>
			<stop  offset="0.5351" style="stop-color:#808080;stop-opacity:0.12"/>
			<stop  offset="1" style="stop-color:#808080;stop-opacity:0.1"/>
		</linearGradient>
		<path class="st10" d="M410.5,50.5l-4.4-0.8c0.1-1.1,0.3-2.2,0.5-3.3c0.8-9.5-5.9-19.6-15.2-22.1l1.2-4.4c8.5,2.3,15,9.4,17.5,17.6
			c4.4-7.6,11.8-12.9,20.4-14.8l0.9,4.4c-9.7,2-18,10.2-20.3,19.9C410.9,48.3,410.7,49.4,410.5,50.5z"/>
	</g>
	<g class="st7">
		
			<linearGradient id="SVGID_3_" gradientUnits="userSpaceOnUse" x1="819.1987" y1="492.5866" x2="819.1987" y2="523.1098" gradientTransform="matrix(1 0 0 -1 -136.8123 523.1099)">
			<stop  offset="0" style="stop-color:#808080;stop-opacity:0.25"/>
			<stop  offset="0.5351" style="stop-color:#808080;stop-opacity:0.12"/>
			<stop  offset="1" style="stop-color:#808080;stop-opacity:0.1"/>
		</linearGradient>
		<path class="st11" d="M681.5,30.5l-4.4-0.8c0.1-1.1,0.3-2.2,0.5-3.3c0.8-9.5-5.9-19.6-15.2-22.1l1.2-4.4c8.5,2.3,15,9.4,17.5,17.6
			c4.4-7.6,11.8-12.9,20.4-14.8l0.9,4.4c-9.7,2-18,10.2-20.3,19.9C681.9,28.3,681.7,29.4,681.5,30.5z"/>
	</g>
	<path class="st9" d="M410.8,45.2l-2.9-0.5c0.1-0.7,0.2-1.4,0.3-2.1c0.5-6.2-3.8-12.7-9.8-14.4l0.8-2.8c5.5,1.6,9.8,6,11.4,11.5
		c2.9-4.9,7.7-8.4,13.3-9.6l0.6,2.9c-6.5,1.5-11.6,6.5-13.2,12.9C411.1,43.7,411,44.5,410.8,45.2z"/>
	<path class="st9" d="M681.8,25.2l-2.9-0.5c0.1-0.7,0.2-1.4,0.3-2.1c0.5-6.2-3.8-12.7-9.8-14.4l0.8-2.8c5.5,1.6,9.8,6,11.4,11.5
		c2.9-4.9,7.7-8.4,13.3-9.6l0.6,2.9c-6.5,1.5-11.6,6.5-13.2,12.9C682.1,23.7,682,24.5,681.8,25.2z"/>
	<g class="st7">
		
			<linearGradient id="SVGID_4_" gradientUnits="userSpaceOnUse" x1="138.3754" y1="504.3167" x2="138.3754" y2="638.3168" gradientTransform="matrix(1 0 0 -1 0 648)">
			<stop  offset="0" style="stop-color:#808080;stop-opacity:0.25"/>
			<stop  offset="0.5351" style="stop-color:#808080;stop-opacity:0.12"/>
			<stop  offset="1" style="stop-color:#808080;stop-opacity:0.1"/>
		</linearGradient>
		<circle class="st12" cx="138.4" cy="76.7" r="67"/>
	</g>
	<circle class="st4" cx="138.4" cy="76.7" r="62"/>
</g>
<g id="Layer_2">
	<g>
		<path class="st13" d="M767.4,412.9c-0.4,0.1-0.8,0.2-1.1,0.3c-4.9,1.5-6,3-10.5,3.5c-0.3,0-0.5,0.1-0.8,0.1
			c-2.2,0-3.1-1.3-6.7-1.6c-1.1,1.3-2.3,2.7-3.4,4c-2.1,2.6-4.9,5.1-4.8,8.7c0.1,3.7,2.5,4.5,5.9,4.6c1.5,0.1,3.9,0.1,6.4,0.1
			c2.2,0,4.5,0,6.3,0c1.9,0,4.2,0,6.3,0c2.5,0,4.9,0,6.4-0.1c3.4-0.1,5.7-0.9,5.9-4.6c0.1-3.6-2.6-6.2-4.8-8.7
			C771,417.1,769.2,415,767.4,412.9"/>
		<path class="st13" d="M772.7,419.2l0.6-0.5c-2.3-2.7-4.6-5.4-6.8-8.1c-0.9-1.1-1.3-1.9-1.5-2.4c-0.2-0.5-0.2-0.8-0.2-0.8v0l-0.4,0
			l0.4,0.1c0,0,0,0,0,0l-0.4,0l0.4,0.1c0,0,0-0.1,0-0.1v-18.7l1.9-1.1c0.3-0.1,0.4-0.4,0.4-0.7V386v-1.6c0-0.2-0.1-0.4-0.2-0.6
			c-0.2-0.2-0.4-0.2-0.6-0.2H763h-4.2h-4.2h-3.2c-0.2,0-0.4,0.1-0.6,0.2c-0.2,0.2-0.2,0.4-0.2,0.6v1.6v0.7c0,0.3,0.2,0.6,0.4,0.7
			l1.9,1.1v18.7c0,0,0,0.1,0,0.1l0.6-0.1l-0.6,0l0,0l0.6-0.1l-0.6,0l0.2,0l-0.2,0l0,0l0.2,0l-0.2,0v0c0,0,0,0.3-0.2,0.8
			c-0.2,0.5-0.7,1.4-1.5,2.4c-2.2,2.7-4.5,5.4-6.8,8.1c-1,1.2-2.2,2.5-3.2,3.9c-0.5,0.7-0.9,1.5-1.2,2.3c-0.3,0.8-0.5,1.7-0.5,2.7
			c0,0.1,0,0.2,0,0.3c0,1,0.2,1.9,0.6,2.6c0.3,0.5,0.6,1,1.1,1.4c0.6,0.6,1.4,0.9,2.3,1.1c0.8,0.2,1.8,0.3,2.8,0.3
			c1.5,0.1,3.9,0.1,6.4,0.1c2.2,0,4.5,0,6.3,0l0-0.8l0,0.8c1.9,0,4.2,0,6.3,0c2.5,0,4.9,0,6.4-0.1c0.9,0,1.7-0.1,2.5-0.3
			c0.6-0.1,1.1-0.3,1.6-0.6c0.8-0.4,1.4-1,1.9-1.7c0.4-0.8,0.7-1.7,0.7-2.9c0-0.1,0-0.2,0-0.3c0-1-0.2-1.9-0.5-2.7
			c-0.5-1.3-1.2-2.4-2-3.4c-0.8-1-1.7-2-2.4-2.9L772.7,419.2l-0.6,0.5c1.1,1.3,2.2,2.5,3.1,3.8c0.4,0.6,0.8,1.3,1.1,2
			c0.3,0.7,0.4,1.4,0.4,2.1c0,0.1,0,0.2,0,0.2c0,0.8-0.2,1.5-0.4,1.9c-0.2,0.4-0.4,0.6-0.6,0.8c-0.4,0.3-0.9,0.6-1.6,0.8
			c-0.7,0.2-1.5,0.3-2.4,0.3c-1.5,0.1-3.8,0.1-6.4,0.1c-2.2,0-4.4,0-6.3,0h0c-1.9,0-4.2,0-6.3,0c-2.5,0-4.9,0-6.4-0.1
			c-0.8,0-1.6-0.1-2.2-0.2c-0.5-0.1-0.9-0.2-1.2-0.4c-0.5-0.3-0.9-0.6-1.2-1.1c-0.3-0.5-0.5-1.2-0.5-2.1c0-0.1,0-0.2,0-0.2
			c0-0.8,0.1-1.5,0.4-2.1c0.4-1,1-2,1.8-2.9c0.7-1,1.6-1.9,2.4-2.9c2.2-2.7,4.6-5.4,6.8-8.2c1-1.2,1.5-2.1,1.8-2.8
			c0.3-0.7,0.4-1.2,0.4-1.5c0-0.1,0-0.2,0-0.2l-0.8,0.1h0.8v-19.1c0-0.3-0.2-0.6-0.4-0.7l-1.9-1.1V386v-0.8h2.4h4.2h4.2h2.4v0.8v0.2
			l-1.9,1.1c-0.3,0.1-0.4,0.4-0.4,0.7v19.1h0.8l-0.8-0.1c0,0,0,0.1,0,0.2c0,0.3,0.1,0.8,0.4,1.5c0.3,0.7,0.8,1.6,1.8,2.8
			c2.2,2.8,4.6,5.4,6.8,8.2L772.7,419.2L772.7,419.2z"/>
		<path class="st13" d="M763.9,391.7h-5.1c-0.4,0-0.7,0.3-0.7,0.7s0.3,0.7,0.7,0.7h5.1c0.4,0,0.7-0.3,0.7-0.7
			S764.3,391.7,763.9,391.7"/>
		<path class="st13" d="M763.9,396h-5.1c-0.4,0-0.7,0.3-0.7,0.7s0.3,0.7,0.7,0.7h5.1c0.4,0,0.7-0.3,0.7-0.7S764.3,396,763.9,396"/>
		<path class="st13" d="M763.9,400.2h-5.1c-0.4,0-0.7,0.3-0.7,0.7s0.3,0.7,0.7,0.7h5.1c0.4,0,0.7-0.3,0.7-0.7
			S764.3,400.2,763.9,400.2"/>
		<polygon class="st6" points="752.9,429.5 747.9,425.2 752.9,421 754.1,422.2 750.4,425.2 754.1,428.3 752.9,429.5 		"/>
		<polygon class="st6" points="756.9,430.9 755.2,430.9 760.4,418.8 762.2,418.8 756.9,430.9 		"/>
		<polygon class="st6" points="764.7,421 769.8,425.2 764.7,429.5 763.6,428.3 767.3,425.2 763.6,422.2 764.7,421 		"/>
	</g>
</g>
</svg>
